<?xml version="1.0" standalone="no"?>
<!DOCTYPE svg PUBLIC "-//W3C//DTD SVG 20010904//EN"
 "http://www.w3.org/TR/2001/REC-SVG-20010904/DTD/svg10.dtd">
<svg version="1.0" xmlns="http://www.w3.org/2000/svg"
 width="1600.000000pt" height="1600.000000pt" viewBox="0 0 1600.000000 1600.000000"
 preserveAspectRatio="xMidYMid meet">

<g transform="translate(0.000000,1600.000000) scale(0.100000,-0.100000)"
fill="#000000" stroke="none">
<path d="M10603 15440 c-42 -25 -53 -48 -53 -111 0 -28 58 -329 129 -668 245
-1164 328 -1648 426 -2474 136 -1148 195 -2218 195 -3562 0 -1568 -89 -2918
-291 -4390 -125 -918 -245 -1565 -464 -2511 -58 -248 -105 -470 -105 -493 0
-104 49 -146 170 -144 89 1 126 14 470 163 417 182 692 322 1013 517 697 423
1326 967 1868 1614 915 1092 1482 2384 1673 3814 121 900 100 1703 -65 2555
-178 914 -469 1683 -931 2458 -902 1513 -2317 2725 -3748 3212 -138 47 -232
54 -287 20z"/>
<path d="M4387 12729 c-515 -53 -1279 -233 -1924 -452 -343 -117 -868 -324
-1035 -408 -75 -38 -162 -104 -201 -154 -77 -97 -375 -638 -455 -825 -198
-462 -351 -1068 -427 -1680 -67 -545 -72 -1239 -14 -1809 119 -1178 499 -2285
1132 -3298 386 -618 913 -1220 1492 -1703 749 -626 1755 -1171 2675 -1451 177
-54 495 -139 521 -139 12 0 21 35 43 187 139 954 215 1297 358 1616 51 114 95
184 138 221 45 37 74 47 136 47 112 0 182 -67 300 -292 127 -240 190 -386 271
-624 84 -251 240 -751 338 -1090 70 -244 83 -276 128 -309 28 -20 38 -21 345
-20 436 1 769 35 1217 125 335 67 310 46 365 299 299 1393 401 2713 304 3975
-95 1258 -417 2586 -906 3740 -88 210 -339 723 -444 910 -303 541 -635 1022
-1008 1460 -146 172 -520 547 -676 678 -243 204 -525 408 -744 536 -391 230
-798 377 -1221 442 -149 24 -559 34 -708 18z"/>
</g>
</svg>
